<svg width="91" height="90" viewBox="0 0 91 90" fill="none" xmlns="http://www.w3.org/2000/svg">
<g clip-path="url(#clip0_11_48)">
<path d="M90.1579 45C90.1579 20.1472 69.9753 0 45.0789 0C20.1826 0 0 20.1472 0 45C0 69.8528 20.1826 90 45.0789 90C69.9753 90 90.1579 69.8528 90.1579 45Z" fill="url(#paint0_linear_11_48)"/>
<path fill-rule="evenodd" clip-rule="evenodd" d="M30.0235 55.3062L30.7053 54.7657C31.3077 54.2882 31.7421 53.9421 32.0112 53.7254C32.1488 53.6147 32.2325 53.5463 32.2726 53.5127C32.276 53.5099 32.2788 53.5075 32.2811 53.5056C32.2674 53.5176 32.24 53.5424 32.2097 53.5725C32.1966 53.5857 32.1719 53.6107 32.1423 53.6438C32.123 53.6653 32.0521 53.7446 31.9779 53.8582C31.9441 53.9099 31.8618 54.0401 31.7947 54.2237C31.7543 54.334 31.5553 54.8814 31.8212 55.526C31.8929 55.6998 31.9824 55.8474 32.0825 55.9724C32.0008 56.0373 31.9154 56.1048 31.8266 56.1753V62.919H58.5296V55.5381H44.1674C44.9446 54.9408 45.6952 54.3408 46.4191 53.7381C49.4273 51.2335 51.9748 48.6829 54.0614 46.0863C56.6501 42.8295 57.9445 39.3072 57.9445 35.5194C57.9445 32.0502 56.8629 29.2359 54.6997 27.0765C52.572 24.9171 49.3981 23.8374 45.1781 23.8374C42.7312 23.8374 40.4971 24.3153 38.4758 25.2711C36.4899 26.2269 34.8764 27.7137 33.6352 29.7315C32.6784 31.3328 32.0789 33.2462 31.8366 35.4717C31.7737 36.0506 31.7349 36.6506 31.7202 37.2717H40.4971C40.4971 35.4309 40.8695 34.0149 41.6142 33.0237C42.3943 31.9971 43.4582 31.4838 44.8058 31.4838C46.1534 31.4838 47.164 31.8909 47.8378 32.7051C48.5115 33.5193 48.8484 34.6521 48.8484 36.1035C48.8484 38.0151 48.1569 39.9798 46.7739 41.9976C45.3909 44.0154 43.6887 45.9447 41.6674 47.7855C39.9564 49.3715 37.6928 51.3384 34.8762 53.6864C34.4236 54.0636 33.9568 54.4508 33.4756 54.8478C33.4919 54.837 33.4928 54.8382 33.4785 54.8512C33.4786 54.8511 33.4783 54.8514 33.4785 54.8512C33.4661 54.8626 33.4423 54.8829 33.4077 54.9115L32.3268 53.4604C35.7904 50.6027 38.491 48.2735 40.4404 46.4665L40.4462 46.4611L40.4521 46.4558C42.3825 44.6978 43.9898 42.8719 45.2858 40.9812C46.5207 39.1795 47.0453 37.5631 47.0453 36.1035C47.0453 34.9148 46.7696 34.2406 46.4476 33.8515C46.2065 33.56 45.775 33.2838 44.8058 33.2838C43.9952 33.2838 43.4753 33.5549 43.0537 34.1077C42.6337 34.6692 42.3003 35.6437 42.3003 37.2717V39.0717H29.8742L29.9175 37.2294C29.9938 33.9954 30.683 31.1585 32.0866 28.8094L32.0925 28.7995L32.0986 28.7897C33.5062 26.5012 35.3718 24.7668 37.6927 23.6498L37.7039 23.6444C39.9885 22.5641 42.4897 22.0374 45.1781 22.0374C49.6857 22.0374 53.3988 23.1928 55.98 25.809C58.5247 28.3522 59.7476 31.6462 59.7476 35.5194C59.7476 39.7537 58.2893 43.6632 55.4739 47.2051L55.4679 47.2127C53.683 49.4338 51.586 51.6083 49.1836 53.7381H60.3328V64.719H30.0235V55.3062ZM32.2903 53.4976C32.2906 53.4974 32.2878 53.4999 32.2811 53.5056C32.2867 53.5006 32.29 53.4978 32.2903 53.4976Z" fill="white"/>
</g>
<defs>
<linearGradient id="paint0_linear_11_48" x1="-18.9689" y1="21.0484" x2="114.401" y2="26.27" gradientUnits="userSpaceOnUse">
<stop stop-color="#FFBC00"/>
<stop offset="0.692708" stop-color="#EE3B24"/>
</linearGradient>
<clipPath id="clip0_11_48">
<rect width="90.1579" height="90" fill="white"/>
</clipPath>
</defs>
</svg>
