<svg width="91" height="90" viewBox="0 0 91 90" fill="none" xmlns="http://www.w3.org/2000/svg">
<g clip-path="url(#clip0_203_2)">
<path d="M90.1579 45C90.1579 20.1472 69.9753 0 45.0789 0C20.1826 0 0 20.1472 0 45C0 69.8528 20.1826 90 45.0789 90C69.9753 90 90.1579 69.8528 90.1579 45Z" fill="url(#paint0_linear_203_2)"/>
<path fill-rule="evenodd" clip-rule="evenodd" d="M29.6915 37.4256L29.7615 35.5584C29.9175 31.3926 31.305 27.9609 34.0966 25.512C36.8514 23.0954 40.4918 21.9843 44.8085 21.9843C47.6686 21.9843 50.2224 22.4783 52.4053 23.5459C54.5836 24.594 56.3023 26.0686 57.4645 27.9963C58.6404 29.888 59.2184 32.0045 59.2184 34.2981C59.2184 36.9404 58.5519 39.2721 57.0777 41.145L57.0712 41.1533L57.0645 41.1615C56.4976 41.8647 55.8811 42.486 55.2148 43.0187C56.2014 43.6928 57.0648 44.5137 57.7939 45.4842C59.2522 47.4252 59.9099 49.8329 59.9099 52.5645C59.9099 55.0497 59.3244 57.3234 58.1106 59.3312C56.9191 61.3257 55.1706 62.8582 52.9501 63.9476C50.7327 65.0531 48.1581 65.5686 45.2872 65.5686C40.7375 65.5686 36.8903 64.4485 33.9312 62.028L33.9216 62.0202C30.9002 59.5138 29.4363 55.8121 29.2825 51.2444L29.2198 49.3839H41.6774L41.7174 51.1431C41.7452 52.3628 42.0782 53.1416 42.5571 53.6666C42.9692 54.0877 43.6729 54.4284 44.9681 54.4284C46.0051 54.4284 46.5404 54.1467 46.8553 53.8173L46.8566 53.8161C47.2638 53.391 47.5267 52.8013 47.5267 51.8742C47.5267 50.5835 47.1355 50.0156 46.6696 49.7005L46.6417 49.6817L46.6146 49.6618C46.023 49.2288 44.7831 48.8421 42.5212 48.8421H39.0158V37.8612H42.5212C44.1455 37.8612 45.2649 37.5886 46.0069 37.1852C46.4338 36.9428 46.782 36.522 46.782 35.4132C46.782 34.4795 46.5315 33.9971 46.2463 33.7124C45.9518 33.4184 45.479 33.1776 44.5957 33.1776C43.6448 33.1776 43.2115 33.4436 42.9677 33.7288C42.5871 34.223 42.3227 34.8798 42.2429 35.7838L42.0977 37.4256H29.6915ZM41.5637 32.5989C42.2374 31.7847 43.2481 31.3776 44.5957 31.3776C45.8369 31.3776 46.8121 31.7316 47.5213 32.4396C48.2306 33.1476 48.5852 34.1388 48.5852 35.4132C48.5852 37.0062 48.0178 38.1213 46.883 38.7585C45.7837 39.3603 44.3297 39.6612 42.5212 39.6612H40.819V47.0421H42.5212C44.8971 47.0421 46.617 47.4315 47.6809 48.2103C48.7802 48.9537 49.3299 50.175 49.3299 51.8742C49.3299 53.184 48.9398 54.246 48.1596 55.0602C47.4149 55.839 46.3511 56.2284 44.9681 56.2284C43.3368 56.2284 42.0956 55.7859 41.2445 54.9009C40.3934 53.9805 39.9501 52.7415 39.9147 51.1839H31.0846C31.1057 51.8072 31.1526 52.4072 31.2257 52.9839C31.646 56.3055 32.9288 58.8561 35.0741 60.6357C37.6274 62.7243 41.0318 63.7686 45.2872 63.7686C47.9469 63.7686 50.2342 63.2907 52.1491 62.3349C54.0995 61.3791 55.5713 60.0693 56.5642 58.4055C57.5926 56.7063 58.1068 54.7593 58.1068 52.5645C58.1068 50.1219 57.5216 48.1218 56.3514 46.5642C55.5971 45.5604 54.6662 44.7403 53.5584 44.104C52.9707 43.7664 52.3332 43.4806 51.646 43.2465C51.6187 43.2372 51.5914 43.228 51.564 43.2189V43.0065C51.5908 42.9974 51.6176 42.9882 51.6442 42.9788C52.2957 42.7495 52.913 42.4392 53.4959 42.048C54.2792 41.5224 55.0005 40.8507 55.6599 40.0329C56.8301 38.5461 57.4153 36.6345 57.4153 34.2981C57.4153 32.3157 56.9188 30.528 55.9258 28.935C54.9684 27.342 53.5322 26.0853 51.6172 25.1649C49.7377 24.2445 47.4681 23.7843 44.8085 23.7843C40.8012 23.7843 37.6274 24.8109 35.2869 26.8641C33.3317 28.5793 32.1436 30.8998 31.7228 33.8256C31.6398 34.4022 31.5867 35.0021 31.5634 35.6256H40.4466C40.553 34.422 40.9254 33.4131 41.5637 32.5989Z" fill="white"/>
</g>
<defs>
<linearGradient id="paint0_linear_203_2" x1="-18.9689" y1="21.0484" x2="114.401" y2="26.27" gradientUnits="userSpaceOnUse">
<stop stop-color="#FFBC00"/>
<stop offset="0.869792" stop-color="#EE3B24"/>
</linearGradient>
<clipPath id="clip0_203_2">
<rect width="90.1579" height="90" fill="white"/>
</clipPath>
</defs>
</svg>
