<?xml version="1.0" encoding="iso-8859-1"?>
<!-- Uploaded to: SVG Repo, www.svgrepo.com, Generator: SVG Repo Mixer Tools -->
<svg height="800px" width="800px" version="1.1" id="Layer_1" xmlns="http://www.w3.org/2000/svg" xmlns:xlink="http://www.w3.org/1999/xlink" 
	 viewBox="0 0 512 512" xml:space="preserve">
<path style="fill:#FD6A33;" d="M42.221,256c0-118.067,95.712-213.779,213.779-213.779S469.779,137.933,469.779,256
	S374.067,469.779,256,469.779S42.221,374.067,42.221,256z M256,418.472c89.73,0,162.472-72.741,162.472-162.472
	S345.73,93.528,256,93.528S93.528,166.27,93.528,256S166.27,418.472,256,418.472z"/>
<path style="fill:#F0353D;" d="M93.528,256c0-89.73,72.741-162.472,162.472-162.472V42.221
	C137.933,42.221,42.221,137.933,42.221,256S137.933,469.779,256,469.779v-51.307C166.27,418.472,93.528,345.73,93.528,256z"/>
<g>
	<path style="fill:#FFFFFF;" d="M437.04,212.713c-3.496,0-6.711-2.306-7.71-5.837c-2.364-8.358-5.368-16.62-8.93-24.555
		c-1.812-4.039-0.007-8.784,4.031-10.597c4.037-1.813,8.784-0.007,10.597,4.031c3.88,8.646,7.154,17.648,9.73,26.757
		c1.205,4.261-1.272,8.691-5.533,9.896C438.495,212.615,437.762,212.713,437.04,212.713z"/>
	<path style="fill:#FFFFFF;" d="M401.129,144.302c-2.309,0-4.6-0.993-6.186-2.913c-17.593-21.303-40.159-38.519-65.262-49.788
		c-4.039-1.813-5.844-6.558-4.03-10.596c1.813-4.039,6.561-5.844,10.596-4.031c27.336,12.27,51.907,31.015,71.059,54.206
		c2.82,3.413,2.338,8.467-1.077,11.286C404.735,143.701,402.927,144.302,401.129,144.302z"/>
</g>
<g>
	<path style="fill:#4ACFD9;" d="M256,383.733c-70.433,0-127.733-57.3-127.733-127.733S185.567,128.267,256,128.267
		S383.733,185.567,383.733,256S326.433,383.733,256,383.733z M256,144.301c-61.591,0-111.699,50.109-111.699,111.699
		S194.409,367.699,256,367.699S367.699,317.591,367.699,256S317.591,144.301,256,144.301z"/>
	<path style="fill:#4ACFD9;" d="M256,383.733c-23.379,0-45.1-13.76-61.163-38.746c-15.357-23.889-23.814-55.491-23.814-88.986
		s8.457-65.098,23.814-88.986c16.063-24.986,37.784-38.746,61.163-38.746s45.1,13.76,61.163,38.746
		c15.357,23.889,23.814,55.491,23.814,88.986s-8.457,65.098-23.814,88.986C301.1,369.973,279.379,383.733,256,383.733z M256,144.301
		c-17.735,0-34.666,11.145-47.675,31.383c-13.716,21.334-21.269,49.857-21.269,80.317s7.553,58.983,21.269,80.317
		c13.008,20.237,29.94,31.383,47.675,31.383s34.666-11.145,47.676-31.383c13.715-21.334,21.268-49.857,21.268-80.317
		s-7.553-58.983-21.268-80.317C290.666,155.446,273.735,144.301,256,144.301z"/>
	<path style="fill:#4ACFD9;" d="M256,383.733c-13.414,0-24.144-13.753-31.895-40.879c-6.659-23.307-10.327-54.152-10.327-86.854
		s3.667-63.547,10.327-86.854c7.751-27.125,18.481-40.879,31.895-40.879c13.414,0,24.144,13.753,31.895,40.879
		c6.659,23.307,10.327,54.152,10.327,86.854s-3.667,63.547-10.327,86.854C280.144,369.979,269.414,383.733,256,383.733z
		 M256,144.301c-2.259,0-9.622,5.255-16.478,29.249c-6.26,21.916-9.71,51.198-9.71,82.45s3.449,60.535,9.71,82.45
		c6.856,23.995,14.219,29.249,16.478,29.249s9.622-5.255,16.478-29.249c6.261-21.916,9.71-51.198,9.71-82.45
		s-3.449-60.535-9.71-82.45C265.622,149.555,258.259,144.301,256,144.301z"/>
	<path style="fill:#4ACFD9;" d="M375.716,264.017H136.284c-4.428,0-8.017-3.588-8.017-8.017c0-4.428,3.588-8.017,8.017-8.017
		h239.432c4.428,0,8.017,3.588,8.017,8.017C383.733,260.428,380.145,264.017,375.716,264.017z"/>
	<path style="fill:#4ACFD9;" d="M358.614,323.875H153.386c-4.428,0-8.017-3.588-8.017-8.017c0-4.428,3.588-8.017,8.017-8.017
		h205.228c4.428,0,8.017,3.588,8.017,8.017C366.63,320.286,363.042,323.875,358.614,323.875z"/>
	<path style="fill:#4ACFD9;" d="M358.614,204.159H153.386c-4.428,0-8.017-3.588-8.017-8.017s3.588-8.017,8.017-8.017h205.228
		c4.428,0,8.017,3.588,8.017,8.017S363.042,204.159,358.614,204.159z"/>
</g>
<path d="M503.983,247.983h-26.348c-4.142-115.936-97.682-209.477-213.618-213.618V8.017C264.017,3.588,260.428,0,256,0
	c-4.428,0-8.017,3.588-8.017,8.017v26.348C132.047,38.506,38.507,132.047,34.365,247.983H8.017C3.588,247.983,0,251.572,0,256
	c0,4.428,3.588,8.017,8.017,8.017h26.348c4.142,115.936,97.682,209.478,213.618,213.618v26.348c0,4.428,3.588,8.017,8.017,8.017
	c4.428,0,8.017-3.588,8.017-8.017v-26.348c115.936-4.142,209.476-97.682,213.618-213.618h26.348c4.428,0,8.017-3.588,8.017-8.017
	C512,251.572,508.412,247.983,503.983,247.983z M461.591,247.983h-35.297c-4.077-87.642-74.635-158.201-162.277-162.278V50.409
	C371.11,54.534,457.466,140.89,461.591,247.983z M256,393.353c-4.428,0-8.017,3.588-8.017,8.017v8.879
	c-78.8-4.049-142.183-67.432-146.232-146.232h8.879c4.428,0,8.017-3.588,8.017-8.017c0-4.428-3.588-8.017-8.017-8.017h-8.879
	c4.049-78.8,67.432-142.183,146.232-146.232v8.879c0,4.428,3.588,8.017,8.017,8.017c4.428,0,8.017-3.588,8.017-8.017v-8.879
	c78.8,4.049,142.183,67.432,146.232,146.232h-8.879c-4.428,0-8.017,3.588-8.017,8.017c0,4.428,3.588,8.017,8.017,8.017h8.879
	c-4.049,78.8-67.432,142.183-146.232,146.232v-8.879C264.017,396.941,260.428,393.353,256,393.353z M247.983,50.409v35.297
	c-87.642,4.077-158.201,74.635-162.278,162.277H50.409C54.534,140.89,140.89,54.534,247.983,50.409z M50.409,264.017h35.297
	c4.077,87.642,74.635,158.201,162.277,162.278v35.297C140.89,457.466,54.534,371.11,50.409,264.017z M264.017,461.591v-35.297
	c87.642-4.078,158.201-74.637,162.278-162.278h35.297C457.466,371.11,371.11,457.466,264.017,461.591z"/>
</svg>